<svg xmlns="http://www.w3.org/2000/svg" xmlns:xlink="http://www.w3.org/1999/xlink" width="1119.792" height="716.667" contentScriptType="application/ecmascript" contentStyleType="text/css" preserveAspectRatio="none" style="width:1119px;height:716px;background:#00000000" version="1.1" viewBox="0 0 1119 716" zoomAndPan="magnify"><defs><linearGradient id="g18zpavgajboil0" x1="50%" x2="50%" y1="0%" y2="100%"><stop offset="0%" stop-color="#3A3A3A"/><stop offset="100%" stop-color="#262626"/></linearGradient><linearGradient id="g18zpavgajboil1" x1="50%" x2="50%" y1="0%" y2="100%"><stop offset="0%" stop-color="#3A3A3A"/><stop offset="100%" stop-color="#484848"/></linearGradient></defs><g><polygon points="84.375 6.25 171.875 6.25 179.167 38.108 459.375 38.108 459.375 400 84.375 400 84.375 6.25" style="stroke:#262626;stroke-width:2.0833333333333335;fill:none"/><line style="stroke:#262626;stroke-width:2.0833333333333335;fill:none" x1="84.375" x2="179.167" y1="38.108" y2="38.108"/><text x="93.75" y="26.109" fill="#FFF200" font-family="Verdana" font-size="12.5" font-weight="bold" lengthAdjust="spacing" textLength="70.833">Interfaces</text><polygon points="16.667 425 105.208 425 112.5 456.858 1102.083 456.858 1102.083 709.375 16.667 709.375 16.667 425" style="stroke:#262626;stroke-width:2.0833333333333335;fill:none"/><line style="stroke:#262626;stroke-width:2.0833333333333335;fill:none" x1="16.667" x2="112.5" y1="456.858" y2="456.858"/><text x="26.042" y="444.859" fill="#FFF200" font-family="Verdana" font-size="12.5" font-weight="bold" lengthAdjust="spacing" textLength="71.875">Structures</text><rect id="IStructuredType" width="219.792" height="77.034" x="203.646" y="51.042" fill="url(#g18zpavgajboil0)" codeLine="3" rx="4.167" ry="4.167" style="stroke:#262626;stroke-width:1.0416666666666667"/><rect width="219.792" height="36.025" x="203.646" y="51.042" fill="url(#g18zpavgajboil1)" rx="4.167" ry="4.167" style="stroke:url(#g18zpavgajboil1);stroke-width:1.0416666666666667"/><rect width="219.792" height="4.167" x="203.646" fill="url(#g18zpavgajboil1)" style="stroke:url(#g18zpavgajboil1);stroke-width:1.0416666666666667" y="82.9"/><rect id="IStructuredType" width="219.792" height="77.034" x="203.646" y="51.042" fill="none" codeLine="3" rx="4.167" ry="4.167" style="stroke:#262626;stroke-width:1.0416666666666667"/><ellipse cx="253.646" cy="69.054" fill="#F33" rx="10.417" ry="10.417" style="stroke:#c00;stroke-width:1.0416666666666667"/><path fill="#000" d="M254.6875,65.9292 L254.6875,72.1792 L255.7292,72.1792 L256.3802,72.1792 L256.7708,72.4233 L256.7708,72.7 L256.7708,72.9767 L256.3802,73.2208 L255.7292,73.2208 L251.5625,73.2208 L250.9115,73.2208 L250.5208,72.9767 L250.5208,72.7 L250.5208,72.4233 L250.9115,72.1792 L251.5625,72.1792 L252.6042,72.1792 L252.6042,65.9292 L251.5625,65.9292 L250.9115,65.9292 L250.5208,65.685 L250.5208,65.4083 L250.5208,65.1316 L250.9115,64.8875 L251.5625,64.8875 L255.7292,64.8875 L256.3802,64.8875 L256.7708,65.1316 L256.7708,65.4083 L256.7708,65.685 L256.3802,65.9292 L255.7292,65.9292 L254.6875,65.9292 Z"/><text x="278.646" y="74.025" fill="#FFF200" font-family="Verdana" font-size="12.5" font-style="italic" lengthAdjust="spacing" textLength="101.042">IStructuredType</text><line style="stroke:#262626;stroke-width:1.0416666666666667" x1="204.688" x2="422.396" y1="87.067" y2="87.067"/><line style="stroke:#262626;stroke-width:1.0416666666666667" x1="204.688" x2="422.396" y1="95.4" y2="95.4"/><ellipse cx="215.104" cy="106.858" fill="#84BE84" rx="3.125" ry="3.125" style="stroke:#038048;stroke-width:1.0416666666666667"/><text x="228.646" y="116.295" fill="#FFF200" font-family="Verdana" font-size="11.458" lengthAdjust="spacing" textLength="183.333">StructureType StructureType()</text><rect id="IChainable" width="257.292" height="77.034" x="184.896" y="190.625" fill="url(#g18zpavgajboil0)" codeLine="7" rx="4.167" ry="4.167" style="stroke:#262626;stroke-width:1.0416666666666667"/><rect width="257.292" height="36.025" x="184.896" y="190.625" fill="url(#g18zpavgajboil1)" rx="4.167" ry="4.167" style="stroke:url(#g18zpavgajboil1);stroke-width:1.0416666666666667"/><rect width="257.292" height="4.167" x="184.896" fill="url(#g18zpavgajboil1)" style="stroke:url(#g18zpavgajboil1);stroke-width:1.0416666666666667" y="222.483"/><rect id="IChainable" width="257.292" height="77.034" x="184.896" y="190.625" fill="none" codeLine="7" rx="4.167" ry="4.167" style="stroke:#262626;stroke-width:1.0416666666666667"/><ellipse cx="271.354" cy="208.637" fill="#F33" rx="10.417" ry="10.417" style="stroke:#c00;stroke-width:1.0416666666666667"/><path fill="#000" d="M272.3958,205.5125 L272.3958,211.7625 L273.4375,211.7625 L274.0885,211.7625 L274.4792,212.0066 L274.4792,212.2833 L274.4792,212.56 L274.0885,212.8042 L273.4375,212.8042 L269.2708,212.8042 L268.6198,212.8042 L268.2292,212.56 L268.2292,212.2833 L268.2292,212.0066 L268.6198,211.7625 L269.2708,211.7625 L270.3125,211.7625 L270.3125,205.5125 L269.2708,205.5125 L268.6198,205.5125 L268.2292,205.2684 L268.2292,204.9917 L268.2292,204.715 L268.6198,204.4708 L269.2708,204.4708 L273.4375,204.4708 L274.0885,204.4708 L274.4792,204.715 L274.4792,204.9917 L274.4792,205.2684 L274.0885,205.5125 L273.4375,205.5125 L272.3958,205.5125 Z"/><text x="296.354" y="213.609" fill="#FFF200" font-family="Verdana" font-size="12.5" font-style="italic" lengthAdjust="spacing" textLength="65.625">IChainable</text><line style="stroke:#262626;stroke-width:1.0416666666666667" x1="185.938" x2="441.146" y1="226.65" y2="226.65"/><ellipse cx="196.354" cy="238.108" rx="3.125" ry="3.125" style="stroke:#038048;stroke-width:1.0416666666666667;fill:none"/><text x="209.896" y="247.545" fill="#FFF200" font-family="Verdana" font-size="11.458" lengthAdjust="spacing" textLength="220.833">BaseInStructure* PNext { get; set; }</text><line style="stroke:#262626;stroke-width:1.0416666666666667" x1="185.938" x2="441.146" y1="259.326" y2="259.326"/><rect id="IExtendsChain" width="190.625" height="52.692" x="101.563" y="330.208" fill="url(#g18zpavgajboil0)" codeLine="11" rx="4.167" ry="4.167" style="stroke:#262626;stroke-width:1.0416666666666667"/><rect width="190.625" height="36.025" x="101.563" y="330.208" fill="url(#g18zpavgajboil1)" rx="4.167" ry="4.167" style="stroke:url(#g18zpavgajboil1);stroke-width:1.0416666666666667"/><rect width="190.625" height="4.167" x="101.563" fill="url(#g18zpavgajboil1)" style="stroke:url(#g18zpavgajboil1);stroke-width:1.0416666666666667" y="362.067"/><rect id="IExtendsChain" width="190.625" height="52.692" x="101.563" y="330.208" fill="none" codeLine="11" rx="4.167" ry="4.167" style="stroke:#262626;stroke-width:1.0416666666666667"/><ellipse cx="116.146" cy="348.221" fill="#F33" rx="10.417" ry="10.417" style="stroke:#c00;stroke-width:1.0416666666666667"/><path fill="#000" d="M117.1875,345.0958 L117.1875,351.3458 L118.2292,351.3458 L118.8802,351.3458 L119.2708,351.59 L119.2708,351.8667 L119.2708,352.1434 L118.8802,352.3875 L118.2292,352.3875 L114.0625,352.3875 L113.4115,352.3875 L113.0208,352.1434 L113.0208,351.8667 L113.0208,351.59 L113.4115,351.3458 L114.0625,351.3458 L115.1042,351.3458 L115.1042,345.0958 L114.0625,345.0958 L113.4115,345.0958 L113.0208,344.8517 L113.0208,344.575 L113.0208,344.2983 L113.4115,344.0542 L114.0625,344.0542 L118.2292,344.0542 L118.8802,344.0542 L119.2708,344.2983 L119.2708,344.575 L119.2708,344.8517 L118.8802,345.0958 L118.2292,345.0958 L117.1875,345.0958 Z"/><text x="134.896" y="353.192" fill="#FFF200" font-family="Verdana" font-size="12.5" font-style="italic" lengthAdjust="spacing" textLength="91.667">IExtendsChain</text><rect height="27.692" style="stroke:#484848;stroke-width:1.0416666666666667;fill:none;stroke-dasharray:2,2" width="55.208" x="240.104" y="327.083"/><text x="246.354" y="345.901" fill="#484848" font-family="Verdana" font-size="12.5" font-style="italic" lengthAdjust="spacing" textLength="42.708">TChain</text><line style="stroke:#262626;stroke-width:1.0416666666666667" x1="102.604" x2="291.146" y1="366.233" y2="366.233"/><line style="stroke:#262626;stroke-width:1.0416666666666667" x1="102.604" x2="291.146" y1="374.567" y2="374.567"/><rect id="IChainStart" width="113.542" height="52.692" x="328.646" y="330.208" fill="url(#g18zpavgajboil0)" codeLine="14" rx="4.167" ry="4.167" style="stroke:#262626;stroke-width:1.0416666666666667"/><rect width="113.542" height="36.025" x="328.646" y="330.208" fill="url(#g18zpavgajboil1)" rx="4.167" ry="4.167" style="stroke:url(#g18zpavgajboil1);stroke-width:1.0416666666666667"/><rect width="113.542" height="4.167" x="328.646" fill="url(#g18zpavgajboil1)" style="stroke:url(#g18zpavgajboil1);stroke-width:1.0416666666666667" y="362.067"/><rect id="IChainStart" width="113.542" height="52.692" x="328.646" y="330.208" fill="none" codeLine="14" rx="4.167" ry="4.167" style="stroke:#262626;stroke-width:1.0416666666666667"/><ellipse cx="343.229" cy="348.221" fill="#F33" rx="10.417" ry="10.417" style="stroke:#c00;stroke-width:1.0416666666666667"/><path fill="#000" d="M344.2708,345.0958 L344.2708,351.3458 L345.3125,351.3458 L345.9635,351.3458 L346.3542,351.59 L346.3542,351.8667 L346.3542,352.1434 L345.9635,352.3875 L345.3125,352.3875 L341.1458,352.3875 L340.4948,352.3875 L340.1042,352.1434 L340.1042,351.8667 L340.1042,351.59 L340.4948,351.3458 L341.1458,351.3458 L342.1875,351.3458 L342.1875,345.0958 L341.1458,345.0958 L340.4948,345.0958 L340.1042,344.8517 L340.1042,344.575 L340.1042,344.2983 L340.4948,344.0542 L341.1458,344.0542 L345.3125,344.0542 L345.9635,344.0542 L346.3542,344.2983 L346.3542,344.575 L346.3542,344.8517 L345.9635,345.0958 L345.3125,345.0958 L344.2708,345.0958 Z"/><text x="361.979" y="353.192" fill="#FFF200" font-family="Verdana" font-size="12.5" font-style="italic" lengthAdjust="spacing" textLength="71.875">IChainStart</text><line style="stroke:#262626;stroke-width:1.0416666666666667" x1="329.688" x2="441.146" y1="366.233" y2="366.233"/><line style="stroke:#262626;stroke-width:1.0416666666666667" x1="329.688" x2="441.146" y1="374.567" y2="374.567"/><rect id="BaseInStructure" width="326.042" height="174.403" x="758.854" y="494.271" fill="url(#g18zpavgajboil0)" codeLine="24" rx="4.167" ry="4.167" style="stroke:#262626;stroke-width:1.0416666666666667"/><rect width="326.042" height="36.025" x="758.854" y="494.271" fill="url(#g18zpavgajboil1)" rx="4.167" ry="4.167" style="stroke:url(#g18zpavgajboil1);stroke-width:1.0416666666666667"/><rect width="326.042" height="4.167" x="758.854" fill="url(#g18zpavgajboil1)" style="stroke:url(#g18zpavgajboil1);stroke-width:1.0416666666666667" y="526.129"/><rect id="BaseInStructure" width="326.042" height="174.403" x="758.854" y="494.271" fill="none" codeLine="24" rx="4.167" ry="4.167" style="stroke:#262626;stroke-width:1.0416666666666667"/><ellipse cx="859.375" cy="512.283" fill="#3A3A3A" rx="10.417" ry="10.417" style="stroke:#565656;stroke-width:1.0416666666666667"/><path fill="#000" d="M859.375,509.1583 Q859.5866,508.6375 859.8307,508.3771 Q860.0749,508.1167 860.3516,508.1167 Q860.8398,508.1167 861.1491,508.3445 Q861.4583,508.5561 861.4583,509.0607 L861.4583,510.2814 Q861.4583,510.8022 861.3118,511.0301 Q861.1654,511.2417 860.9375,511.2417 Q860.7259,511.2417 860.612,511.0626 Q860.4818,510.8836 860.4167,510.4116 Q860.3841,510.0861 860.2865,509.907 Q860.0911,509.5652 859.7331,509.3699 Q859.3913,509.1583 859.0332,509.1583 L859.1634,509.1583 L857.2917,511.0301 L857.2917,511.0301 L857.2917,511.9415 L857.2917,512.9018 L857.2917,513.5366 L859.1634,515.4083 L859.196,515.4083 Q859.7168,515.4083 860.0911,515.1967 Q860.3027,515.0828 860.5469,514.7085 Q860.6934,514.4969 860.7747,514.4318 Q860.8724,514.3667 860.9701,514.3667 Q861.1654,514.3667 861.3118,514.5457 Q861.4583,514.7247 861.4583,514.9689 Q861.4583,515.213 861.2142,515.4897 Q860.8724,515.8966 860.319,516.1407 Q859.5866,516.45 858.6914,516.45 L858.5449,516.45 L855.2083,514.1551 L855.2083,514.1551 L855.2083,514.1551 L855.2083,512.8693 L855.2083,511.9578 L855.2083,510.4116 L855.2083,510.4116 L858.5449,508.1167 L857.8939,508.1167 Q858.3171,508.1167 858.6751,508.3771 Q859.0495,508.6375 859.375,509.1583 Z"/><text x="884.375" y="517.255" fill="#FFF200" font-family="Verdana" font-size="12.5" lengthAdjust="spacing" textLength="106.25">BaseInStructure</text><line style="stroke:#262626;stroke-width:1.0416666666666667" x1="759.896" x2="1083.854" y1="530.296" y2="530.296"/><ellipse cx="770.313" cy="541.754" rx="3.125" ry="3.125" style="stroke:#038048;stroke-width:1.0416666666666667;fill:none"/><text x="783.854" y="551.191" fill="#FFF200" font-family="Verdana" font-size="11.458" lengthAdjust="spacing" textLength="126.042">StructureType SType</text><ellipse cx="770.313" cy="566.096" rx="3.125" ry="3.125" style="stroke:#038048;stroke-width:1.0416666666666667;fill:none"/><text x="783.854" y="575.533" fill="#FFF200" font-family="Verdana" font-size="11.458" lengthAdjust="spacing" textLength="142.708">BaseInStructure* PNext</text><ellipse cx="770.313" cy="614.781" rx="3.125" ry="3.125" style="stroke:#038048;stroke-width:1.0416666666666667;fill:none"/><text x="783.854" y="624.218" fill="#FFF200" font-family="Verdana" font-size="11.458" lengthAdjust="spacing" textLength="289.583">BaseInStructure* IChainable.PNext { get; set; }</text><line style="stroke:#262626;stroke-width:1.0416666666666667" x1="759.896" x2="1083.854" y1="635.999" y2="635.999"/><ellipse cx="770.313" cy="647.457" fill="#84BE84" rx="3.125" ry="3.125" style="stroke:#038048;stroke-width:1.0416666666666667"/><text x="783.854" y="656.893" fill="#FFF200" font-family="Verdana" font-size="11.458" lengthAdjust="spacing" textLength="277.083">StructureType IStructureType.StructureType()</text><rect id="PhysicalDeviceFeatures2" width="326.042" height="198.746" x="396.354" y="481.771" fill="url(#g18zpavgajboil0)" codeLine="33" rx="4.167" ry="4.167" style="stroke:#262626;stroke-width:1.0416666666666667"/><rect width="326.042" height="36.025" x="396.354" y="481.771" fill="url(#g18zpavgajboil1)" rx="4.167" ry="4.167" style="stroke:url(#g18zpavgajboil1);stroke-width:1.0416666666666667"/><rect width="326.042" height="4.167" x="396.354" fill="url(#g18zpavgajboil1)" style="stroke:url(#g18zpavgajboil1);stroke-width:1.0416666666666667" y="513.629"/><rect id="PhysicalDeviceFeatures2" width="326.042" height="198.746" x="396.354" y="481.771" fill="none" codeLine="33" rx="4.167" ry="4.167" style="stroke:#262626;stroke-width:1.0416666666666667"/><ellipse cx="469.271" cy="499.783" fill="#3A3A3A" rx="10.417" ry="10.417" style="stroke:#565656;stroke-width:1.0416666666666667"/><path fill="#000" d="M469.2708,496.6583 Q469.4824,496.1375 469.7266,495.8771 Q469.9707,495.6167 470.2474,495.6167 Q470.7357,495.6167 471.0449,495.8445 Q471.3542,496.0561 471.3542,496.5607 L471.3542,497.7814 Q471.3542,498.3022 471.2077,498.5301 Q471.0612,498.7417 470.8333,498.7417 Q470.6217,498.7417 470.5078,498.5626 Q470.3776,498.3836 470.3125,497.9116 Q470.2799,497.5861 470.1823,497.407 Q469.987,497.0652 469.6289,496.8699 Q469.2871,496.6583 468.929,496.6583 L469.0592,496.6583 L467.1875,498.5301 L467.1875,498.5301 L467.1875,499.4415 L467.1875,500.4018 L467.1875,501.0366 L469.0592,502.9083 L469.0918,502.9083 Q469.6126,502.9083 469.987,502.6967 Q470.1986,502.5828 470.4427,502.2085 Q470.5892,501.9969 470.6706,501.9318 Q470.7682,501.8667 470.8659,501.8667 Q471.0612,501.8667 471.2077,502.0457 Q471.3542,502.2247 471.3542,502.4689 Q471.3542,502.713 471.11,502.9897 Q470.7682,503.3966 470.2148,503.6407 Q469.4824,503.95 468.5872,503.95 L468.4408,503.95 L465.1042,501.6551 L465.1042,501.6551 L465.1042,501.6551 L465.1042,500.3693 L465.1042,499.4578 L465.1042,497.9116 L465.1042,497.9116 L468.4408,495.6167 L467.7897,495.6167 Q468.2129,495.6167 468.571,495.8771 Q468.9453,496.1375 469.2708,496.6583 Z"/><text x="494.271" y="504.755" fill="#FFF200" font-family="Verdana" font-size="12.5" lengthAdjust="spacing" textLength="161.458">PhysicalDeviceFeatures2</text><line style="stroke:#262626;stroke-width:1.0416666666666667" x1="397.396" x2="721.354" y1="517.796" y2="517.796"/><ellipse cx="407.813" cy="529.254" rx="3.125" ry="3.125" style="stroke:#038048;stroke-width:1.0416666666666667;fill:none"/><text x="421.354" y="538.691" fill="#FFF200" font-family="Verdana" font-size="11.458" lengthAdjust="spacing" textLength="126.042">StructureType SType</text><ellipse cx="407.813" cy="553.596" rx="3.125" ry="3.125" style="stroke:#038048;stroke-width:1.0416666666666667;fill:none"/><text x="421.354" y="563.033" fill="#FFF200" font-family="Verdana" font-size="11.458" lengthAdjust="spacing" textLength="142.708">BaseInStructure* PNext</text><ellipse cx="407.813" cy="577.939" rx="3.125" ry="3.125" style="stroke:#038048;stroke-width:1.0416666666666667;fill:none"/><text x="421.354" y="587.375" fill="#FFF200" font-family="Verdana" font-size="11.458" lengthAdjust="spacing" textLength="194.792">PhysicalDeviceFeatures Features</text><ellipse cx="407.813" cy="626.624" rx="3.125" ry="3.125" style="stroke:#038048;stroke-width:1.0416666666666667;fill:none"/><text x="421.354" y="636.06" fill="#FFF200" font-family="Verdana" font-size="11.458" lengthAdjust="spacing" textLength="289.583">BaseInStructure* IChainable.PNext { get; set; }</text><line style="stroke:#262626;stroke-width:1.0416666666666667" x1="397.396" x2="721.354" y1="647.841" y2="647.841"/><ellipse cx="407.813" cy="659.299" fill="#84BE84" rx="3.125" ry="3.125" style="stroke:#038048;stroke-width:1.0416666666666667"/><text x="421.354" y="668.736" fill="#FFF200" font-family="Verdana" font-size="11.458" lengthAdjust="spacing" textLength="277.083">StructureType IStructureType.StructureType()</text><rect id="PhysicalDeviceVariablePointersFeatures" width="326.042" height="223.088" x="33.854" y="469.792" fill="url(#g18zpavgajboil0)" codeLine="45" rx="4.167" ry="4.167" style="stroke:#262626;stroke-width:1.0416666666666667"/><rect width="326.042" height="36.025" x="33.854" y="469.792" fill="url(#g18zpavgajboil1)" rx="4.167" ry="4.167" style="stroke:url(#g18zpavgajboil1);stroke-width:1.0416666666666667"/><rect width="326.042" height="4.167" x="33.854" fill="url(#g18zpavgajboil1)" style="stroke:url(#g18zpavgajboil1);stroke-width:1.0416666666666667" y="501.65"/><rect id="PhysicalDeviceVariablePointersFeatures" width="326.042" height="223.088" x="33.854" y="469.792" fill="none" codeLine="45" rx="4.167" ry="4.167" style="stroke:#262626;stroke-width:1.0416666666666667"/><ellipse cx="59.219" cy="487.804" fill="#3A3A3A" rx="10.417" ry="10.417" style="stroke:#565656;stroke-width:1.0416666666666667"/><path fill="#000" d="M59.2188,484.6792 Q59.4303,484.1583 59.6745,483.8979 Q59.9186,483.6375 60.1953,483.6375 Q60.6836,483.6375 60.9928,483.8654 Q61.3021,484.0769 61.3021,484.5815 L61.3021,485.8022 Q61.3021,486.323 61.1556,486.5509 Q61.0091,486.7625 60.7813,486.7625 Q60.5697,486.7625 60.4557,486.5835 Q60.3255,486.4044 60.2604,485.9324 Q60.2279,485.6069 60.1302,485.4279 Q59.9349,485.0861 59.5768,484.8907 Q59.235,484.6792 58.877,484.6792 L59.0072,484.6792 L57.1354,486.5509 L57.1354,486.5509 L57.1354,487.4624 L57.1354,488.4226 L57.1354,489.0574 L59.0072,490.9292 L59.0397,490.9292 Q59.5605,490.9292 59.9349,490.7176 Q60.1465,490.6036 60.3906,490.2293 Q60.5371,490.0177 60.6185,489.9526 Q60.7161,489.8875 60.8138,489.8875 Q61.0091,489.8875 61.1556,490.0665 Q61.3021,490.2456 61.3021,490.4897 Q61.3021,490.7338 61.0579,491.0105 Q60.7161,491.4174 60.1628,491.6616 Q59.4303,491.9708 58.5352,491.9708 L58.3887,491.9708 L55.0521,489.6759 L55.0521,489.6759 L55.0521,489.6759 L55.0521,488.3901 L55.0521,487.4786 L55.0521,485.9324 L55.0521,485.9324 L58.3887,483.6375 L57.7376,483.6375 Q58.1608,483.6375 58.5189,483.8979 Q58.8932,484.1583 59.2188,484.6792 Z"/><text x="80.365" y="492.776" fill="#FFF200" font-family="Verdana" font-size="12.5" lengthAdjust="spacing" textLength="260.417">PhysicalDeviceVariablePointersFeatures</text><line style="stroke:#262626;stroke-width:1.0416666666666667" x1="34.896" x2="358.854" y1="505.817" y2="505.817"/><ellipse cx="45.313" cy="517.275" rx="3.125" ry="3.125" style="stroke:#038048;stroke-width:1.0416666666666667;fill:none"/><text x="58.854" y="526.712" fill="#FFF200" font-family="Verdana" font-size="11.458" lengthAdjust="spacing" textLength="126.042">StructureType SType</text><ellipse cx="45.313" cy="541.617" rx="3.125" ry="3.125" style="stroke:#038048;stroke-width:1.0416666666666667;fill:none"/><text x="58.854" y="551.054" fill="#FFF200" font-family="Verdana" font-size="11.458" lengthAdjust="spacing" textLength="142.708">BaseInStructure* PNext</text><ellipse cx="45.313" cy="565.96" rx="3.125" ry="3.125" style="stroke:#038048;stroke-width:1.0416666666666667;fill:none"/><text x="58.854" y="575.396" fill="#FFF200" font-family="Verdana" font-size="11.458" lengthAdjust="spacing" textLength="225">Bool32 VariablePointersStorageBuffer</text><ellipse cx="45.313" cy="590.302" rx="3.125" ry="3.125" style="stroke:#038048;stroke-width:1.0416666666666667;fill:none"/><text x="58.854" y="599.739" fill="#FFF200" font-family="Verdana" font-size="11.458" lengthAdjust="spacing" textLength="141.667">Bool32 VariablePointers</text><ellipse cx="45.313" cy="638.987" rx="3.125" ry="3.125" style="stroke:#038048;stroke-width:1.0416666666666667;fill:none"/><text x="58.854" y="648.423" fill="#FFF200" font-family="Verdana" font-size="11.458" lengthAdjust="spacing" textLength="289.583">BaseInStructure* IChainable.PNext { get; set; }</text><line style="stroke:#262626;stroke-width:1.0416666666666667" x1="34.896" x2="358.854" y1="660.204" y2="660.204"/><ellipse cx="45.313" cy="671.662" fill="#84BE84" rx="3.125" ry="3.125" style="stroke:#038048;stroke-width:1.0416666666666667"/><text x="58.854" y="681.099" fill="#FFF200" font-family="Verdana" font-size="11.458" lengthAdjust="spacing" textLength="277.083">StructureType IStructureType.StructureType()</text><path id="IStructuredType-backto-IChainable" fill="none" d="M313.5417,149.3542 C313.5417,163.3333 313.5417,177.875 313.5417,190.5938" codeLine="17" style="stroke:#303030;stroke-width:3.125"/><polygon fill="none" points="306.25 149.031 313.542 128.198 320.833 149.031 306.25 149.031" style="stroke:#303030;stroke-width:3.125"/><path id="IChainable-backto-IExtendsChain" fill="none" d="M263.9792,283.5313 C249.0104,299.6458 233.25,316.5938 220.7604,330.0313" codeLine="19" style="stroke:#303030;stroke-width:3.125"/><polygon fill="none" points="259.01 278.167 278.542 267.865 269.698 288.094 259.01 278.167" style="stroke:#303030;stroke-width:3.125"/><path id="IChainable-backto-IChainStart" fill="none" d="M345.5208,286.0521 C354.3021,301.3958 363.4063,317.3021 370.6979,330.0313" codeLine="20" style="stroke:#303030;stroke-width:3.125"/><polygon fill="none" points="339.135 289.573 335.104 267.865 351.792 282.323 339.135 289.573" style="stroke:#303030;stroke-width:3.125"/><path id="IChainable-backto-BaseInStructure" fill="none" d="M445.1354,275.0208 C532.5313,307.7604 647.8021,356.8021 740.625,416.6667 C774.8125,438.7188 808.8542,467.2292 838.0417,494.2604" style="stroke:#303030;stroke-width:3.125;stroke-dasharray:7,7"/><polygon fill="none" points="442.542 281.833 425.531 267.771 447.604 268.156 442.542 281.833" style="stroke:#303030;stroke-width:3.125"/><path id="IChainStart-backto-PhysicalDeviceFeatures2" fill="none" d="M418.7083,400.3646 C436.75,423.4375 459.8542,452.9792 482.1042,481.4167" style="stroke:#303030;stroke-width:3.125;stroke-dasharray:7,7"/><polygon fill="none" points="412.802 404.667 405.708 383.76 424.292 395.677 412.802 404.667" style="stroke:#303030;stroke-width:3.125"/><path id="IExtendsChain-backto-PhysicalDeviceFeatures2" fill="none" d="M265,392.0208 C279.6875,398.2813 295.3333,404.1458 310.4167,408.3333 C339.6354,416.4375 350.5417,404.0729 378.125,416.6667 C412.0521,432.1563 444.0729,456.3229 471.4896,481.3646" codeLine="43" style="stroke:#303030;stroke-width:3.125;stroke-dasharray:7,7"/><polygon fill="none" points="261.729 398.542 245.719 383.354 267.708 385.24 261.729 398.542" style="stroke:#303030;stroke-width:3.125"/><path id="IExtendsChain-backto-PhysicalDeviceVariablePointersFeatures" fill="none" d="M163.2813,403.6042 C158.5521,422.9063 156.2083,446.2917 156.25,469.6458" style="stroke:#303030;stroke-width:3.125;stroke-dasharray:7,7"/><polygon fill="none" points="156.344 401.375 169.646 383.76 170.229 405.823 156.344 401.375" style="stroke:#303030;stroke-width:3.125"/><path id="IExtendsChain-backto-PhysicalDeviceVariablePointersFeatures-1" fill="none" d="M185.8229,404.5417 C184.3229,423.6667 183.5833,446.6771 183.5938,469.6458" codeLine="56" style="stroke:#303030;stroke-width:3.125;stroke-dasharray:7,7"/><polygon fill="none" points="178.573 403.729 187.969 383.76 193.083 405.229 178.573 403.729" style="stroke:#303030;stroke-width:3.125"/><path id="IExtendsChain-backto-PhysicalDeviceVariablePointersFeatures-2" fill="none" d="M208.5833,404.5417 C210.1667,423.6667 210.9479,446.6771 210.9375,469.6458" codeLine="57" style="stroke:#303030;stroke-width:3.125;stroke-dasharray:7,7"/><polygon fill="none" points="201.323 405.26 206.302 383.76 215.823 403.677 201.323 405.26" style="stroke:#303030;stroke-width:3.125"/><path id="IExtendsChain-backto-PhysicalDeviceVariablePointersFeatures-3" fill="none" d="M231.1146,403.6042 C235.9375,422.9063 238.3229,446.2917 238.2813,469.6458" codeLine="58" style="stroke:#303030;stroke-width:3.125;stroke-dasharray:7,7"/><polygon fill="none" points="224.167 405.823 224.625 383.76 238.031 401.302 224.167 405.823" style="stroke:#303030;stroke-width:3.125"/></g></svg>